# xmcd
# 
# Track frame offsets:
#     225
#     21582
#     50895
#     67795
#     85398
#     97166
#     122942
#     153235
# 
# Disc length: 2295
# 
# Revision: 1
# Processed by: cddbd v1.5.2PL0 Copyright (c) Steve Scherf et al.
# Submitted via: BonkEnc v1.0.8
# 
DISCID=6f08f408
DTITLE=Johnny Almond - Patent Pending
DYEAR=1969
DGENRE=Contemporary Jazz
TTITLE0=Ensingle
TTITLE1=Before Dawn
TTITLE2=Voodoo Forest
TTITLE3=Solar Level
TTITLE4=To RK
TTITLE5=Reversed for two horns
TTITLE6=Pequeno Nova
TTITLE7=Tales of Junior
EXTD=YEAR: 1969
EXTT0=
EXTT1=
EXTT2=
EXTT3=
EXTT4=
EXTT5=
EXTT6=
EXTT7=
PLAYORDER=
